<?xml version="1.0" encoding="UTF-8" standalone="no"?>
<svg
   xmlns:dc="http://purl.org/dc/elements/1.1/"
   xmlns:cc="http://creativecommons.org/ns#"
   xmlns:rdf="http://www.w3.org/1999/02/22-rdf-syntax-ns#"
   xmlns:svg="http://www.w3.org/2000/svg"
   xmlns="http://www.w3.org/2000/svg"
   xmlns:sodipodi="http://sodipodi.sourceforge.net/DTD/sodipodi-0.dtd"
   xmlns:inkscape="http://www.inkscape.org/namespaces/inkscape"
   version="1.1"
   stroke-miterlimit="10"
   overflow="hidden"
   preserveAspectRatio="none"
   style="overflow:hidden;fill:none;fill-rule:evenodd;stroke:none;stroke-linecap:square;stroke-miterlimit:10"
   width="131.30168"
   height="137.0181"
   viewBox="0 0 50025.94 52203.895"
   id="svg3943"
   sodipodi:docname="logo.svg"
   inkscape:version="0.92.3 (2405546, 2018-03-11)">
  <metadata
     id="metadata3949">
    <rdf:RDF>
      <cc:Work
         rdf:about="">
        <dc:format>image/svg+xml</dc:format>
        <dc:type
           rdf:resource="http://purl.org/dc/dcmitype/StillImage" />
        <dc:title></dc:title>
      </cc:Work>
    </rdf:RDF>
  </metadata>
  <defs
     id="defs3947" />
  <sodipodi:namedview
     pagecolor="#ffffff"
     bordercolor="#666666"
     borderopacity="1"
     objecttolerance="10"
     gridtolerance="10"
     guidetolerance="10"
     inkscape:pageopacity="0"
     inkscape:pageshadow="2"
     inkscape:window-width="1842"
     inkscape:window-height="1057"
     id="namedview3945"
     showgrid="false"
     inkscape:zoom="5.1082513"
     inkscape:cx="90.895845"
     inkscape:cy="80.192439"
     inkscape:window-x="70"
     inkscape:window-y="-8"
     inkscape:window-maximized="1"
     inkscape:current-layer="g3905" />
  <rect
     width="100%"
     height="100%"
     id="rect3832"
     x="-154.19907"
     y="-1819.8396"
     style="fill:#ffffff;fill-opacity:0" />
  <g
     transform="matrix(0.31666667,0,0,0.31666667,193774.8,5419.1604)"
     id="g3941">
    <defs
       cursor="default"
       id="defs3834" />
    <g
       id="editor-g3627be40cb_0_0">
      <g
         id="editor-g3627be40cb_0_0-bg"
         transform="matrix(0.45907949,0,0,0.81683115,29205.998,15074.064)">
        <g
           id="g3842">
          <g
             id="g3840" />
        </g>
      </g>
      <g
         id="editor-g3627be40cb_0_8"
         transform="translate(-640647.7,-35800.901)">
        <g
           id="128">
          <g
             id="g3901" />
          <g
             id="g3905">
            <path
               stroke-miterlimit="243.5493"
               d="m 91973.092,23365.656 v 0 l -2056.191,-1650.158 -1853.155,203.026 -1786.407,812.293 -295.333,3166.635 -4050.809,42987.77 v 0 l -879.204,3230.601 -1513.846,3300.131 -2757.746,3436.41 -2963.557,1557.837 -39304.089,18076.317 v 0 l -2284.77,2125.742 -472.977,1310.67 812.287,1786.43 2056.187,1650.16 40026.015,16886.86 v 0 l 3300.086,1513.88 2801.723,2827.33 1649.959,3570.09 948.567,3030.36 5376.639,43213.78 v 0 l 879.036,2395.69 1446.929,1716.92 1853.157,-203.03 1650.126,-2056.22 28344.541,-32521.32 v 0 l 2827.28,-2801.75 3570.03,-1649.98 3706.32,-406.05 3775.84,228.6 42174.67,7890.89 v 0 l 3138.42,272.74 1177.15,-745.54 406.23,-1919.93 -881.82,-2421.1 -22255.47,-37588.03 v 0 l -1583.2,-2960.84 -406.06,-3706.364 200.41,-3798.499 1516.63,-3274.748 20887.94,-37972.952 v 0 l 948.73,-2595.949 -203.03,-1853.185 -1989.43,-1040.893 -2462.42,269.775 -42740.29,9692.212 v 0 l -3097.05,339.304 -3842.59,-837.866 -3300.09,-1513.881 -2732.2,-2192.676 z"
               id="path3903"
               inkscape:connector-curvature="0"
               style="stroke:#eaa015;stroke-width:6055.49365234;stroke-linecap:round;stroke-linejoin:round;stroke-miterlimit:100;stroke-dasharray:none;stroke-opacity:1" />
            <path
               style="opacity:1;stroke-width:0.19576171"
               d="m 46.607625,135.15791 c -0.281343,-0.46113 -0.608659,-1.36699 -0.727369,-2.013 -0.135435,-0.73702 -0.293957,-7.70134 -0.425545,-18.69524 C 45.327102,103.78801 45.161736,96.430853 45.032303,95.656543 44.915314,94.956695 44.556324,93.547211 44.234544,92.524356 43.758787,91.012042 43.448424,90.41474 42.573187,89.327023 41.981221,88.591347 41.044087,87.700235 40.490666,87.346776 39.937246,86.993318 32.304887,82.708443 23.529868,77.824835 6.8839647,68.560797 5.8540874,67.914981 5.6044158,66.584117 5.4456321,65.737728 5.7046699,65.302753 6.882315,64.438283 7.7202955,63.823149 10.399676,62.87347 25.6309,57.793044 c 9.773985,-3.260147 18.034686,-6.066626 18.357116,-6.236621 0.968676,-0.510719 3.348964,-3.084882 4.18812,-4.529241 0.432312,-0.7441 1.007971,-1.977399 1.27924,-2.740664 0.271271,-0.763265 2.17261,-9.580382 4.225203,-19.593594 2.052591,-10.013211 3.776048,-18.3526378 3.829904,-18.5320593 0.119902,-0.3994568 1.068923,-0.7504685 2.029023,-0.7504685 0.570174,0 0.855261,0.1479618 1.414449,0.7341064 0.385188,0.4037586 5.587767,7.2529714 11.561285,15.2204724 6.9368,9.252333 11.313261,14.915993 12.112836,15.675455 1.419922,1.348682 3.178359,2.382482 5.135552,3.019238 1.195702,0.38901 1.624524,0.425479 4.013115,0.341297 1.495357,-0.0527 10.225827,-0.968421 19.803507,-2.077149 9.42104,-1.090592 17.42916,-1.982935 17.79584,-1.982984 0.41317,-5.3e-5 0.91565,0.189805 1.32139,0.499281 0.81001,0.617822 0.85316,1.275399 0.17191,2.619777 -0.26554,0.524013 -5.08382,7.502436 -10.7073,15.507608 -5.62348,8.005172 -10.6442,15.230316 -11.15715,16.055878 -0.81032,1.304149 -0.97219,1.74678 -1.23416,3.374781 -0.47922,2.978048 -0.41004,4.161334 0.35318,6.040746 0.36009,0.886711 4.00408,9.011994 8.09775,18.056185 4.09368,9.044192 7.53414,16.820382 7.64548,17.280412 0.25273,1.04422 -0.0267,2.07899 -0.63646,2.35681 -0.30393,0.13848 -0.80596,0.11718 -1.68595,-0.0715 -0.68922,-0.14781 -8.82911,-2.56819 -18.08864,-5.37862 -9.259526,-2.81043 -17.540246,-5.2361 -18.401598,-5.39038 -4.023813,-0.72072 -7.19861,-0.15356 -9.535087,1.70338 -0.677494,0.53845 -7.559097,6.80907 -15.292454,13.93471 -10.314628,9.50407 -14.200143,12.97047 -14.584247,13.0111 -0.432279,0.0457 -0.612815,-0.0908 -1.035129,-0.78305 z"
               id="path3969"
               inkscape:connector-curvature="0"
               transform="matrix(1203.1579,0,0,1203.1579,28727.285,13532.519)" />
            <path
               style="opacity:1;stroke-width:0.19576171"
               d="m 46.607625,135.15791 c -0.281343,-0.46113 -0.608659,-1.36699 -0.727369,-2.013 -0.135435,-0.73702 -0.293957,-7.70134 -0.425545,-18.69524 C 45.327102,103.78801 45.161736,96.430853 45.032303,95.656543 44.915314,94.956695 44.556324,93.547211 44.234544,92.524356 43.758787,91.012042 43.448424,90.41474 42.573187,89.327023 41.981221,88.591347 41.044087,87.700235 40.490666,87.346776 39.937246,86.993318 32.304887,82.708443 23.529868,77.824835 6.8839647,68.560797 5.8540874,67.914981 5.6044158,66.584117 5.4456321,65.737728 5.7046699,65.302753 6.882315,64.438283 7.7202955,63.823149 10.399676,62.87347 25.6309,57.793044 c 9.773985,-3.260147 18.034686,-6.066626 18.357116,-6.236621 0.968676,-0.510719 3.348964,-3.084882 4.18812,-4.529241 0.432312,-0.7441 1.007971,-1.977399 1.27924,-2.740664 0.271271,-0.763265 2.17261,-9.580382 4.225203,-19.593594 2.052591,-10.013211 3.776048,-18.3526378 3.829904,-18.5320593 0.119902,-0.3994568 1.068923,-0.7504685 2.029023,-0.7504685 0.570174,0 0.855261,0.1479618 1.414449,0.7341064 0.385188,0.4037586 5.587767,7.2529714 11.561285,15.2204724 6.9368,9.252333 11.313261,14.915993 12.112836,15.675455 1.419922,1.348682 3.178359,2.382482 5.135552,3.019238 1.195702,0.38901 1.624524,0.425479 4.013115,0.341297 1.495357,-0.0527 10.225827,-0.968421 19.803507,-2.077149 9.42104,-1.090592 17.42916,-1.982935 17.79584,-1.982984 0.41317,-5.3e-5 0.91565,0.189805 1.32139,0.499281 0.81001,0.617822 0.85316,1.275399 0.17191,2.619777 -0.26554,0.524013 -5.08382,7.502436 -10.7073,15.507608 -5.62348,8.005172 -10.6442,15.230316 -11.15715,16.055878 -0.81032,1.304149 -0.97219,1.74678 -1.23416,3.374781 -0.47922,2.978048 -0.41004,4.161334 0.35318,6.040746 0.36009,0.886711 4.00408,9.011994 8.09775,18.056185 4.09368,9.044192 7.53414,16.820382 7.64548,17.280412 0.25273,1.04422 -0.0267,2.07899 -0.63646,2.35681 -0.30393,0.13848 -0.80596,0.11718 -1.68595,-0.0715 -0.68922,-0.14781 -8.82911,-2.56819 -18.08864,-5.37862 -9.259526,-2.81043 -17.540246,-5.2361 -18.401598,-5.39038 -4.023813,-0.72072 -7.19861,-0.15356 -9.535087,1.70338 -0.677494,0.53845 -7.559097,6.80907 -15.292454,13.93471 -10.314628,9.50407 -14.200143,12.97047 -14.584247,13.0111 -0.432279,0.0457 -0.612815,-0.0908 -1.035129,-0.78305 z"
               id="path3971"
               inkscape:connector-curvature="0"
               transform="matrix(1203.1579,0,0,1203.1579,28727.285,13532.519)" />
            <path
               style="opacity:1;stroke-width:0.19576171"
               d="M -144.23792,56.602083 V -85.814559 H 123.0747 390.38731 V 56.602083 199.01872 H 123.0747 -144.23792 Z M 62.437977,123.80993 c 7.724992,-7.12611 14.68988,-13.46879 15.477528,-14.09484 0.787647,-0.62605 1.369999,-1.13827 1.294102,-1.13827 -0.368267,0 -3.933792,3.18204 -15.54391,13.8721 -6.947231,6.39667 -13.203912,12.18609 -13.90376,12.86536 -1.117694,1.08484 -1.379592,1.24411 -2.153379,1.30943 l -0.880928,0.0744 0.83245,0.0342 0.832447,0.0342 z m -16.38549,11.6684 c -0.328519,-0.51802 -0.597308,-0.86777 -0.597308,-0.77723 0,0.21622 1.04609,1.8676 1.129943,1.78376 0.03557,-0.0356 -0.204115,-0.4885 -0.532635,-1.00653 z m 3.220046,-0.27792 c 0.420543,-0.43068 0.676532,-0.78305 0.568864,-0.78305 -0.107669,0 -0.539845,0.35237 -0.960388,0.78305 -0.420543,0.43067 -0.676533,0.78305 -0.568864,0.78305 0.107669,0 0.539844,-0.35238 0.960388,-0.78305 z m -3.879389,-1.21128 c -0.06249,-0.15616 -0.108878,-0.10978 -0.118271,0.11828 -0.0085,0.20635 0.03777,0.32199 0.102818,0.25694 0.06505,-0.0651 0.072,-0.2339 0.01545,-0.37522 z m 0.587286,-0.19576 c -0.06249,-0.15616 -0.108879,-0.10978 -0.118272,0.11828 -0.0085,0.20635 0.03777,0.32199 0.102818,0.25694 0.06505,-0.065 0.072,-0.2339 0.01545,-0.37522 z m -0.783047,-0.58728 c -0.06249,-0.15616 -0.108879,-0.10979 -0.118272,0.11828 -0.0085,0.20635 0.03777,0.32198 0.102818,0.25693 0.06505,-0.065 0.072,-0.23389 0.01545,-0.37521 z m 0.587285,-0.19577 c -0.06249,-0.15615 -0.108879,-0.10978 -0.118272,0.11828 -0.0085,0.20636 0.03777,0.32199 0.102818,0.25694 0.06505,-0.065 0.072,-0.2339 0.01545,-0.37522 z m -0.770534,-6.46152 c -0.0344,-1.21725 -0.06267,-0.27513 -0.06282,2.09359 -1.49e-4,2.36872 0.028,3.36464 0.06255,2.21317 0.03455,-1.15147 0.03467,-3.08952 1.96e-4,-4.30676 z m 0.587275,-2.95898 c -0.0334,-1.42017 -0.06065,-0.20363 -0.06054,2.70343 1.04e-4,2.90706 0.02743,4.06903 0.06073,2.58214 0.0333,-1.48689 0.03321,-3.8654 -1.9e-4,-5.28557 z m 9.348213,6.32502 c 0.06654,-0.10767 0.03289,-0.19576 -0.07478,-0.19576 -0.107669,0 -0.250203,0.0881 -0.316742,0.19576 -0.06654,0.10767 -0.03289,0.19576 0.07478,0.19576 0.107669,0 0.250203,-0.0881 0.316742,-0.19576 z m 2.544902,-2.34914 c 0.06654,-0.10767 0.03289,-0.19576 -0.07478,-0.19576 -0.107669,0 -0.250203,0.0881 -0.316742,0.19576 -0.06654,0.10767 -0.03289,0.19576 0.07478,0.19576 0.107669,0 0.250203,-0.0881 0.316742,-0.19576 z m 2.544903,-2.34914 c 0.06654,-0.10767 0.03289,-0.19576 -0.07478,-0.19576 -0.107669,0 -0.250203,0.0881 -0.316743,0.19576 -0.06654,0.10767 -0.03289,0.19576 0.07478,0.19576 0.107669,0 0.250203,-0.0881 0.316743,-0.19576 z M 44.81858,113.82529 c -0.03311,-1.54081 -0.06029,-0.33486 -0.06039,2.67988 -10e-5,3.01473 0.027,4.27537 0.06021,2.80144 0.03322,-1.47393 0.0333,-3.94052 1.8e-4,-5.48132 z m 80.2586,5.20438 c -0.065,-0.065 -0.23389,-0.072 -0.37521,-0.0155 -0.15616,0.0625 -0.10979,0.10889 0.11827,0.11828 0.20636,0.008 0.32199,-0.0378 0.25694,-0.10283 z m -0.87685,-0.20714 c -0.13459,-0.0543 -0.35482,-0.0543 -0.48941,0 -0.13458,0.0543 -0.0245,0.0987 0.2447,0.0987 0.26918,0 0.37929,-0.0444 0.24471,-0.0987 z m -0.97881,-0.19576 c -0.13459,-0.0543 -0.35482,-0.0543 -0.48941,0 -0.13458,0.0543 -0.0245,0.0987 0.24471,0.0987 0.26917,0 0.37928,-0.0444 0.2447,-0.0987 z M 67.478371,118.3649 c 0.06654,-0.10767 0.03289,-0.19576 -0.07478,-0.19576 -0.107669,0 -0.250203,0.0881 -0.316742,0.19576 -0.06654,0.10767 -0.03289,0.19576 0.07478,0.19576 0.107669,0 0.250203,-0.0881 0.316742,-0.19576 z m 54.858149,0.0775 c -0.065,-0.065 -0.2339,-0.072 -0.37522,-0.0155 -0.15616,0.0625 -0.10978,0.10888 0.11828,0.11828 0.20635,0.008 0.32199,-0.0378 0.25694,-0.10284 z m 4.42623,-1.83933 c 0,-0.70518 -0.42343,-2.44896 -0.56076,-2.31164 -0.0424,0.0424 0.0567,0.58903 0.22007,1.21476 0.26706,1.02268 0.26626,1.22829 -0.008,2.03311 -0.3843,1.1279 -0.367,1.32597 0.038,0.4341 0.17109,-0.37684 0.31091,-0.99349 0.31069,-1.37033 z m -2.46861,1.64357 c -0.0651,-0.065 -0.2339,-0.072 -0.37522,-0.0155 -0.15616,0.0625 -0.10978,0.10888 0.11828,0.11828 0.20635,0.008 0.32199,-0.0378 0.25694,-0.10284 z m 1.24044,-0.0844 c 0.20827,-0.11145 0.37731,-0.30966 0.37567,-0.44046 -0.002,-0.16374 -0.0478,-0.17163 -0.14683,-0.0253 -0.0791,0.11687 -0.32001,0.3124 -0.53534,0.43452 -0.49068,0.27823 -0.20873,0.30701 0.3065,0.0313 z m -80.128932,-7.88423 c -0.0334,-1.42017 -0.06065,-0.20363 -0.06054,2.70343 1.04e-4,2.90707 0.02743,4.06903 0.06073,2.58214 0.0333,-1.48689 0.03321,-3.86539 -1.9e-4,-5.28557 z m 75.319912,7.69536 c -0.21534,-0.0925 -0.52367,-0.16824 -0.68517,-0.16824 -0.18509,0 -0.1489,0.0622 0.0979,0.16824 0.21534,0.0925 0.52366,0.16824 0.68517,0.16824 0.18509,0 0.14889,-0.0622 -0.0979,-0.16824 z m 2.58977,0.0775 c -0.0651,-0.065 -0.2339,-0.072 -0.37522,-0.0155 -0.15616,0.0625 -0.10978,0.10888 0.11828,0.11827 0.20635,0.008 0.32199,-0.0378 0.25694,-0.10283 z m -5.13468,-0.86053 c -0.21533,-0.0925 -0.52366,-0.16824 -0.68516,-0.16824 -0.1851,0 -0.1489,0.0622 0.0979,0.16824 0.21534,0.0925 0.52366,0.16824 0.68516,0.16824 0.1851,0 0.1489,-0.0622 -0.0979,-0.16824 z m -1.95761,-0.58728 c -0.21534,-0.0925 -0.52367,-0.16824 -0.68517,-0.16824 -0.18509,0 -0.1489,0.0622 0.0979,0.16824 0.21534,0.0925 0.52366,0.16823 0.68517,0.16823 0.18509,0 0.14889,-0.0622 -0.0979,-0.16823 z m -46.199766,-0.58729 c 0.06654,-0.10767 0.03289,-0.19576 -0.07478,-0.19576 -0.107669,0 -0.250203,0.0881 -0.316743,0.19576 -0.06654,0.10767 -0.03289,0.19576 0.07478,0.19576 0.107669,0 0.250203,-0.0881 0.316743,-0.19576 z m 44.242146,0 c -0.21534,-0.0925 -0.52366,-0.16824 -0.68517,-0.16824 -0.18509,0 -0.14889,0.0622 0.0979,0.16824 0.21534,0.0925 0.52367,0.16824 0.68517,0.16824 0.18509,0 0.1489,-0.0622 -0.0979,-0.16824 z m 1.66397,-0.0769 c 0,-0.0423 -0.13672,-0.1294 -0.3038,-0.19353 -0.17423,-0.0669 -0.25281,-0.034 -0.18421,0.0769 0.11495,0.18601 0.48801,0.27512 0.48801,0.11658 z m -4.20887,-0.70612 c -0.21534,-0.0925 -0.52367,-0.16823 -0.68517,-0.16823 -0.18509,0 -0.1489,0.0622 0.0979,0.16823 0.21534,0.0925 0.52366,0.16824 0.68517,0.16824 0.18509,0 0.14889,-0.0622 -0.0979,-0.16824 z m 1.80672,-0.11828 c -0.065,-0.065 -0.23389,-0.072 -0.37522,-0.0155 -0.15615,0.0625 -0.10978,0.10888 0.11828,0.11828 0.20636,0.008 0.32199,-0.0378 0.25694,-0.10283 z m -3.76434,-0.469 c -0.21534,-0.0925 -0.52366,-0.16824 -0.68517,-0.16824 -0.18509,0 -0.14889,0.0622 0.0979,0.16824 0.21533,0.0925 0.52366,0.16824 0.68516,0.16824 0.18509,0 0.1489,-0.0622 -0.0979,-0.16824 z m -1.95762,-0.58729 c -0.21533,-0.0925 -0.52366,-0.16823 -0.68516,-0.16823 -0.1851,0 -0.1489,0.0622 0.0979,0.16823 0.21534,0.0925 0.52366,0.16824 0.68516,0.16824 0.1851,0 0.1489,-0.0622 -0.0979,-0.16824 z m 17.93501,-0.91138 c -0.21838,-0.41392 -0.40092,-0.68952 -0.40568,-0.61241 -0.0139,0.22511 0.64114,1.52653 0.72575,1.44193 0.0423,-0.0423 -0.1017,-0.41561 -0.32007,-0.82952 z m -53.172114,0.51986 c 0.06654,-0.10767 0.03289,-0.19576 -0.07478,-0.19576 -0.107669,0 -0.250203,0.0881 -0.316743,0.19576 -0.06654,0.10767 -0.03289,0.19576 0.07478,0.19576 0.107669,0 0.250203,-0.0881 0.316743,-0.19576 z m 32.932834,-0.31404 c -0.065,-0.065 -0.23389,-0.072 -0.37522,-0.0155 -0.15615,0.0625 -0.10978,0.10889 0.11828,0.11828 0.20636,0.008 0.32199,-0.0378 0.25694,-0.10283 z m 1.61911,-0.15254 c 0,-0.0413 -0.17631,-0.12115 -0.3918,-0.1775 -0.21548,-0.0564 -0.34243,-0.0226 -0.28209,0.0751 0.10538,0.17049 0.67389,0.25692 0.67389,0.10244 z m -3.81736,-0.51223 c -0.21533,-0.0925 -0.52366,-0.16824 -0.68516,-0.16824 -0.18509,0 -0.1489,0.0622 0.0979,0.16824 0.21534,0.0925 0.52366,0.16824 0.68516,0.16824 0.1851,0 0.1489,-0.0622 -0.0979,-0.16824 z m 1.21944,-0.31404 c -0.065,-0.065 -0.23389,-0.072 -0.37521,-0.0155 -0.15616,0.0625 -0.10979,0.10888 0.11828,0.11827 0.20635,0.008 0.32198,-0.0378 0.25693,-0.10283 z m -3.17705,-0.27324 c -0.21534,-0.0925 -0.52367,-0.16824 -0.68517,-0.16824 -0.18509,0 -0.1489,0.0622 0.0979,0.16824 0.21534,0.0925 0.52366,0.16823 0.68517,0.16823 0.18509,0 0.14889,-0.0622 -0.0979,-0.16823 z m 23.51399,-0.91073 c -0.27156,-0.52196 -0.49786,-0.88529 -0.50287,-0.80743 -0.0143,0.22107 0.8387,1.91441 0.92221,1.8309 0.0409,-0.041 -0.14776,-0.50151 -0.41934,-1.02347 z m -25.47161,0.32344 c -0.215338,-0.0925 -0.523663,-0.16824 -0.685166,-0.16824 -0.185093,0 -0.148897,0.0622 0.09788,0.16824 0.215337,0.0925 0.523662,0.16824 0.685166,0.16824 0.185092,0 0.148896,-0.0622 -0.09788,-0.16824 z m 1.07669,-0.27269 c 0,-0.0423 -0.13672,-0.1294 -0.3038,-0.19353 -0.174231,-0.0669 -0.25281,-0.034 -0.184215,0.0769 0.114955,0.18601 0.488015,0.27512 0.488015,0.11658 z m -3.621592,-0.51036 c -0.215338,-0.0925 -0.523663,-0.16823 -0.685166,-0.16823 -0.185093,0 -0.148897,0.0622 0.09788,0.16823 0.215338,0.0925 0.523663,0.16824 0.685166,0.16824 0.185093,0 0.148897,-0.0622 -0.09788,-0.16824 z m 2.394009,0.0775 c -0.06505,-0.065 -0.233897,-0.072 -0.375217,-0.0155 -0.156159,0.0625 -0.109783,0.10888 0.118279,0.11828 0.206353,0.008 0.321989,-0.0378 0.256938,-0.10283 z m -4.351627,-0.66477 c -0.215337,-0.0925 -0.523662,-0.16824 -0.685166,-0.16824 -0.185092,0 -0.148896,0.0622 0.09788,0.16824 0.215338,0.0925 0.523663,0.16824 0.685166,0.16824 0.185093,0 0.148897,-0.0622 -0.09788,-0.16824 z m 28.99532,-1.10648 c -0.27156,-0.52196 -0.49786,-0.88531 -0.50287,-0.80743 -0.0143,0.22106 0.8387,1.9144 0.92222,1.83089 0.0409,-0.041 -0.14777,-0.50151 -0.41935,-1.02346 z m -30.952937,0.51919 c -0.215338,-0.0925 -0.523662,-0.16824 -0.685166,-0.16824 -0.185092,0 -0.148896,0.0622 0.09788,0.16824 0.215338,0.0925 0.523663,0.16825 0.685166,0.16825 0.185093,0 0.148897,-0.0622 -0.09788,-0.16825 z m 1.663975,-0.0769 c 0,-0.0423 -0.13672,-0.1294 -0.303803,-0.19352 -0.174228,-0.0668 -0.252806,-0.034 -0.184211,0.0769 0.114951,0.18602 0.488014,0.27514 0.488014,0.11659 z m -1.031821,-0.43286 c -0.06505,-0.065 -0.233896,-0.072 -0.375216,-0.0155 -0.15616,0.0625 -0.109784,0.10888 0.118279,0.11827 0.206352,0.008 0.321989,-0.0378 0.256937,-0.10281 z m -3.177056,-0.27325 c -0.215338,-0.0925 -0.523662,-0.16825 -0.685166,-0.16825 -0.185093,0 -0.148896,0.0622 0.09788,0.16825 0.215338,0.0925 0.523663,0.16824 0.685166,0.16824 0.185093,0 0.148896,-0.0622 -0.09788,-0.16824 z m 1.806724,-0.11828 c -0.06505,-0.065 -0.233896,-0.072 -0.375216,-0.0154 -0.156159,0.0625 -0.109784,0.10888 0.118279,0.11827 0.206352,0.008 0.321989,-0.0378 0.256937,-0.10282 z m -47.566499,-8.25054 c -0.03326,-1.480443 -0.06047,-0.26917 -0.06047,2.69173 0,2.96089 0.02721,4.17217 0.06047,2.69172 0.03326,-1.48045 0.03326,-3.903 0,-5.38345 z m 35.580166,7.34323 c 0.646014,-0.21784 1.259394,-0.47374 1.36305,-0.56867 0.24294,-0.22249 -2.504967,0.70953 -2.969274,1.00709 -0.32197,0.20634 -0.318603,0.214 0.04013,0.0914 0.215338,-0.0736 0.92008,-0.31201 1.566093,-0.52984 z m 8.462622,0.51579 c -0.06505,-0.065 -0.233896,-0.072 -0.375216,-0.0154 -0.156159,0.0625 -0.109783,0.10887 0.118279,0.11827 0.206353,0.008 0.321989,-0.0378 0.256937,-0.10282 z m -0.876855,-0.20714 c -0.134587,-0.0543 -0.354819,-0.0543 -0.489405,0 -0.134586,0.0543 -0.02447,0.0987 0.244702,0.0987 0.269173,0 0.379289,-0.0444 0.244703,-0.0987 z m -1.174571,-0.19576 c -0.134586,-0.0543 -0.354818,-0.0543 -0.489404,0 -0.134586,0.0543 -0.02447,0.0987 0.244702,0.0987 0.269173,0 0.379288,-0.0444 0.244702,-0.0987 z m 36.385542,-0.78175 c -0.21837,-0.41391 -0.40092,-0.68949 -0.40568,-0.61239 -0.0139,0.22511 0.64114,1.52654 0.72575,1.44193 0.0423,-0.0423 -0.1017,-0.41561 -0.32007,-0.82954 z m -38.147397,0.57132 c -0.565262,-0.0396 -1.490236,-0.0396 -2.055498,0 -0.565262,0.0395 -0.102775,0.0719 1.027749,0.0719 1.130524,0 1.593011,-0.0324 1.027749,-0.0719 z m 3.132187,-0.18109 c -0.134586,-0.0543 -0.354818,-0.0543 -0.489404,0 -0.134586,0.0543 -0.02447,0.0987 0.244702,0.0987 0.269172,0 0.379288,-0.0444 0.244702,-0.0987 z m -1.080761,-0.18439 c -0.06505,-0.065 -0.233896,-0.072 -0.375216,-0.0154 -0.15616,0.0625 -0.109784,0.10888 0.118279,0.11827 0.206352,0.008 0.321989,-0.0378 0.256937,-0.10282 z m 35.117161,-2.35921 c -0.21837,-0.41392 -0.40092,-0.6895 -0.40567,-0.6124 -0.0139,0.22511 0.64114,1.52654 0.72574,1.44193 0.0423,-0.0423 -0.10169,-0.41561 -0.32007,-0.82953 z m -76.818999,-1.87821 c -0.04666,-0.24226 -0.08484,-0.044 -0.08484,0.44046 0,0.48451 0.03818,0.68272 0.08484,0.44047 0.04666,-0.24226 0.04666,-0.63868 0,-0.88093 z M 121.042,102.77138 c -0.21837,-0.41392 -0.40092,-0.6895 -0.40567,-0.6124 -0.0139,0.22511 0.64114,1.52654 0.72574,1.44193 0.0423,-0.0423 -0.10169,-0.41561 -0.32007,-0.82953 z m -75.840189,-1.48669 c -0.04666,-0.24225 -0.08484,-0.044 -0.08484,0.44047 0,0.48451 0.03818,0.68272 0.08484,0.44046 0.04666,-0.24226 0.04666,-0.63867 0,-0.88093 z M 120.0632,100.618 c -0.21838,-0.41392 -0.40092,-0.6895 -0.40568,-0.6124 -0.0139,0.22511 0.64114,1.52654 0.72575,1.44193 0.0423,-0.0423 -0.1017,-0.41561 -0.32007,-0.82953 z M 45.208322,97.467339 c -0.03885,-0.619096 -0.07064,-0.112563 -0.07064,1.12563 0,1.238193 0.03179,1.744731 0.07064,1.12563 0.03885,-0.619097 0.03885,-1.632163 0,-2.25126 z m 73.973728,1.193716 c -0.27156,-0.521958 -0.49786,-0.885301 -0.50287,-0.807429 -0.0143,0.221068 0.8387,1.914399 0.92221,1.830883 0.0409,-0.04094 -0.14776,-0.501497 -0.41934,-1.023454 z m -0.97881,-2.153379 c -0.27156,-0.521957 -0.49786,-0.885301 -0.50287,-0.807429 -0.0143,0.221068 0.8387,1.914399 0.92222,1.830883 0.0409,-0.04094 -0.14777,-0.501496 -0.41935,-1.023454 z M 44.410258,95.803365 c -0.05431,-0.134587 -0.09874,-0.02447 -0.09874,0.244702 0,0.269172 0.04443,0.379288 0.09874,0.244702 0.05431,-0.134586 0.05431,-0.354818 0,-0.489404 z m 0.591363,-0.183527 c -0.06249,-0.156165 -0.108879,-0.109779 -0.118271,0.118273 -0.0085,0.206365 0.03777,0.321987 0.102818,0.256938 0.06505,-0.06505 0.072,-0.233896 0.01544,-0.375211 z m -0.787125,-0.795282 c -0.05431,-0.134586 -0.09874,-0.02447 -0.09874,0.244702 0,0.269173 0.04443,0.379289 0.09874,0.244702 0.05431,-0.134586 0.05431,-0.354818 0,-0.489404 z m 73.108034,-0.27517 c -0.21837,-0.413919 -0.40092,-0.689499 -0.40567,-0.6124 -0.0139,0.225111 0.64113,1.52654 0.72574,1.44193 0.0423,-0.04232 -0.1017,-0.41561 -0.32007,-0.82953 z m -72.516671,0.09164 c -0.06249,-0.156165 -0.108878,-0.109779 -0.118271,0.118274 -0.0085,0.206364 0.03777,0.321987 0.102818,0.256937 0.06505,-0.06505 0.072,-0.233896 0.01544,-0.375211 z M 43.689338,92.806021 C 43.117741,91.08837 43.01453,91.284389 43.557399,93.0566 c 0.236263,0.771285 0.458852,1.319667 0.494645,1.218622 0.03579,-0.101044 -0.127426,-0.762184 -0.362706,-1.469201 z m 72.654382,-0.410017 c -0.21837,-0.413919 -0.40092,-0.689498 -0.40567,-0.6124 -0.0139,0.225111 0.64114,1.52654 0.72574,1.44193 0.0423,-0.04232 -0.10169,-0.41561 -0.32007,-0.82953 z M 43.106039,91.180088 c 0,-0.09333 -0.469421,-0.758743 -1.043158,-1.478684 -0.970173,-1.217403 -2.017876,-2.015136 -3.910128,-2.977215 -1.078021,-0.548099 -0.423865,-0.07089 1.203212,0.877737 1.156995,0.674561 1.817117,1.231625 2.556977,2.157777 0.548534,0.686654 0.997335,1.325327 0.997335,1.419273 0,0.09395 0.04405,0.17081 0.09788,0.17081 0.05383,0 0.09788,-0.07636 0.09788,-0.169698 z m 72.258881,-0.93746 c -0.21838,-0.413919 -0.40092,-0.689498 -0.40568,-0.612399 -0.0139,0.22511 0.64114,1.52654 0.72575,1.441929 0.0423,-0.04232 -0.1017,-0.415609 -0.32007,-0.82953 z m -0.97881,-2.153379 c -0.21838,-0.413918 -0.40092,-0.689498 -0.40568,-0.612399 -0.0139,0.22511 0.64114,1.52654 0.72575,1.44193 0.0423,-0.04232 -0.1017,-0.41561 -0.32007,-0.829531 z M 113.4073,85.93587 c -0.21837,-0.413918 -0.40092,-0.689498 -0.40568,-0.612399 -0.0139,0.22511 0.64114,1.52654 0.72575,1.44193 0.0423,-0.04232 -0.1017,-0.41561 -0.32007,-0.829531 z m -75.978351,0.427019 c 0,-0.05107 -0.264278,-0.229517 -0.587285,-0.39655 -0.736236,-0.380723 -0.780784,-0.21536 -0.04894,0.181673 0.615191,0.333746 0.636225,0.34085 0.636225,0.214877 z m -1.370332,-0.784096 c 0,-0.05165 -0.352371,-0.273667 -0.783046,-0.493382 -0.430676,-0.219715 -0.783047,-0.355748 -0.783047,-0.302297 0,0.05345 0.330348,0.271578 0.734106,0.484729 0.830615,0.438499 0.831987,0.439012 0.831987,0.31095 z m 76.467533,-1.599866 c -0.27156,-0.521958 -0.49786,-0.885301 -0.50287,-0.807429 -0.0143,0.221068 0.8387,1.914399 0.92222,1.830883 0.0409,-0.04094 -0.14776,-0.501497 -0.41935,-1.023454 z m -78.229388,0.621058 c 0,-0.05165 -0.352371,-0.273667 -0.783047,-0.493382 -0.430676,-0.219716 -0.783047,-0.355748 -0.783047,-0.302298 0,0.05345 0.330348,0.271579 0.734107,0.48473 0.830615,0.438498 0.831987,0.439011 0.831987,0.31095 z m -1.761855,-0.978809 c 0,-0.05165 -0.352371,-0.273667 -0.783047,-0.493382 -0.430676,-0.219715 -0.783047,-0.355748 -0.783047,-0.302297 0,0.05345 0.330348,0.271578 0.734106,0.484729 0.830615,0.438499 0.831988,0.439012 0.831988,0.31095 z m 79.110533,-1.60054 c -0.21837,-0.413918 -0.40092,-0.689498 -0.40567,-0.612399 -0.0139,0.22511 0.64113,1.52654 0.72574,1.44193 0.0423,-0.04232 -0.1017,-0.41561 -0.32007,-0.829531 z m -80.872389,0.621732 c 0,-0.05165 -0.352371,-0.273667 -0.783047,-0.493382 -0.430675,-0.219716 -0.783046,-0.355748 -0.783046,-0.302298 0,0.05345 0.330347,0.271579 0.734106,0.48473 0.830615,0.438498 0.831987,0.439011 0.831987,0.31095 z m -1.761855,-0.978809 c 0,-0.05165 -0.352371,-0.273667 -0.783047,-0.493382 -0.430676,-0.219715 -0.783047,-0.355748 -0.783047,-0.302297 0,0.05345 0.330348,0.271578 0.734107,0.484729 0.830615,0.438499 0.831987,0.439012 0.831987,0.31095 z m 82.048054,-1.017045 c -0.23078,-0.39685 -0.28649,-0.269828 -0.0976,0.222452 0.0671,0.174953 0.1633,0.276858 0.21371,0.226455 0.0504,-0.0504 -0.002,-0.252411 -0.11611,-0.448907 z M 27.249341,80.6858 c 0,-0.05107 -0.264279,-0.229517 -0.587286,-0.396551 -0.736236,-0.380723 -0.780783,-0.215359 -0.04894,0.181673 0.615191,0.333746 0.636226,0.340851 0.636226,0.214878 z m 83.418389,-1.018094 c -0.23078,-0.39685 -0.2865,-0.269828 -0.0976,0.222452 0.0671,0.174952 0.16331,0.276858 0.21372,0.226455 0.0504,-0.0504 -0.002,-0.252411 -0.11611,-0.448907 z m -84.788721,0.233318 c 0,-0.05202 -0.440464,-0.317783 -0.978809,-0.590583 -0.538345,-0.2728 -0.978808,-0.452159 -0.978808,-0.398573 0,0.05358 0.41844,0.315245 0.929868,0.581467 1.045361,0.544163 1.027749,0.537176 1.027749,0.407689 z M 23.72563,78.728183 c 0,-0.05107 -0.264279,-0.229517 -0.587285,-0.396551 -0.736237,-0.380723 -0.780784,-0.215359 -0.04894,0.181673 0.615191,0.333746 0.636226,0.34085 0.636225,0.214878 z m 85.88722,-2.104292 c -0.0413,-0.460439 -0.0758,-0.132419 -0.0765,0.728933 0,0.861351 0.0331,1.238073 0.0752,0.837161 0.0421,-0.400912 0.0426,-1.105654 0.002,-1.566094 z m -87.257552,1.320196 c 0,-0.05165 -0.352371,-0.273667 -0.783047,-0.493382 -0.430676,-0.219716 -0.783047,-0.355748 -0.783047,-0.302298 0,0.05345 0.330348,0.271579 0.734107,0.48473 0.830615,0.438498 0.831987,0.439011 0.831987,0.31095 z m -1.761856,-0.978809 c 0,-0.05165 -0.352371,-0.273667 -0.783046,-0.493382 -0.430676,-0.219715 -0.783047,-0.355748 -0.783047,-0.302297 0,0.05345 0.330348,0.271578 0.734106,0.484729 0.830615,0.438499 0.831987,0.439012 0.831987,0.31095 z M 18.831587,75.98647 c 0,-0.05165 -0.352371,-0.273667 -0.783047,-0.493383 -0.430675,-0.219715 -0.783047,-0.355747 -0.783047,-0.302297 0,0.05345 0.330348,0.271579 0.734107,0.48473 0.830615,0.438498 0.831987,0.439011 0.831987,0.31095 z m 91.550373,-0.933846 c -0.0543,-0.134587 -0.0987,-0.02447 -0.0987,0.244702 0,0.269172 0.0444,0.379288 0.0987,0.244702 0.0543,-0.134586 0.0543,-0.354818 0,-0.489404 z m -0.58322,-0.183527 c -0.0625,-0.156165 -0.10888,-0.109779 -0.11828,0.118273 -0.008,0.206365 0.0378,0.321987 0.10284,0.256938 0.065,-0.06505 0.072,-0.233896 0.0155,-0.375211 z m -92.729008,0.138564 c 0,-0.05165 -0.352371,-0.273667 -0.783047,-0.493382 -0.430676,-0.219715 -0.783047,-0.355748 -0.783047,-0.302297 0,0.05345 0.330348,0.271578 0.734106,0.484729 0.830615,0.438499 0.831988,0.439012 0.831988,0.31095 z m 93.513998,-1.223763 c -0.0496,-0.19047 -0.0935,-0.08203 -0.0975,0.240977 -0.004,0.323006 0.0366,0.478845 0.0902,0.346308 0.0536,-0.132537 0.0569,-0.396815 0.007,-0.587285 z m -95.275854,0.244955 c 0,-0.05165 -0.352371,-0.273667 -0.783046,-0.493383 -0.430676,-0.219715 -0.783047,-0.355748 -0.783047,-0.302297 0,0.05345 0.330348,0.271578 0.734106,0.48473 0.830615,0.438498 0.831987,0.439011 0.831987,0.31095 z M 109.99043,73.48653 c -0.0543,-0.134586 -0.0987,-0.02447 -0.0987,0.244702 0,0.269172 0.0444,0.379288 0.0987,0.244702 0.0543,-0.134586 0.0543,-0.354818 0,-0.489404 z m 3.30521,-4.479239 c 0.80914,-1.170246 1.43049,-2.127719 1.38078,-2.127719 -0.2963,0 -4.03259,5.768828 -4.03259,6.226311 0,0.15047 0.26565,-0.23142 0.59032,-0.848646 0.32469,-0.617225 1.25234,-2.079702 2.06149,-3.249946 z m -99.857288,3.967081 c -0.276615,-0.252225 -2.95238,-1.687123 -2.770684,-1.4858 0.159172,0.176366 2.708577,1.643958 2.868565,1.651321 0.04845,0.0022 0.0044,-0.07225 -0.09788,-0.165521 z m -3.024518,-1.686183 c 0,-0.05165 -0.352371,-0.273667 -0.7830471,-0.493383 C 9.2001111,70.575091 8.84774,70.439059 8.84774,70.492509 c 0,0.05345 0.3303479,0.271579 0.7341064,0.48473 0.8306146,0.438498 0.8319876,0.439011 0.8319876,0.31095 z M 8.6519783,70.30938 c 0,-0.05165 -0.352371,-0.273667 -0.7830468,-0.493382 -0.4306758,-0.219715 -0.7830468,-0.355748 -0.7830468,-0.302297 0,0.05345 0.3303479,0.271578 0.7341064,0.484729 0.8306149,0.438499 0.8319872,0.439012 0.8319872,0.31095 z M 6.0858027,68.484296 C 5.6129932,67.967199 5.1875971,67.572628 5.1404773,67.607473 c -0.0886,0.06552 1.5695625,1.817002 1.7201914,1.817002 0.046634,0 -0.3020564,-0.423081 -0.774866,-0.940179 z M 115.53787,65.802883 c 0.33334,-0.48451 0.56205,-0.880928 0.50822,-0.880928 -0.0538,0 -0.37064,0.396418 -0.70398,0.880928 -0.33334,0.48451 -0.56205,0.880928 -0.50822,0.880928 0.0538,0 0.37064,-0.396418 0.70398,-0.880928 z M 5.4536784,65.851823 c -0.054306,-0.134586 -0.09874,-0.02447 -0.09874,0.244703 0,0.269172 0.044434,0.379288 0.09874,0.244702 0.054306,-0.134587 0.054306,-0.354818 0,-0.489405 z m 1.7307273,-2.399907 c 0.4303233,-0.299742 0.6280055,-0.490694 0.4392912,-0.424341 -0.387847,0.136374 -2.4954293,1.693143 -2.4954293,1.843253 0,0.05368 0.2865893,-0.120996 0.6368657,-0.388164 0.3502764,-0.26717 0.988949,-0.731005 1.4192724,-1.030748 z M 116.9082,63.845266 c 0.33335,-0.48451 0.56205,-0.880928 0.50822,-0.880928 -0.0538,0 -0.37064,0.396418 -0.70398,0.880928 -0.33334,0.48451 -0.56205,0.880928 -0.50822,0.880928 0.0538,0 0.37064,-0.396418 0.70398,-0.880928 z m 3.04954,-4.355698 c 1.26104,-1.803455 2.37888,-3.389125 2.48414,-3.523711 0.10524,-0.134586 0.14243,-0.244702 0.0826,-0.244702 -0.0598,0 -1.14045,1.475554 -2.40147,3.279009 -1.26104,1.803454 -2.37888,3.389124 -2.48414,3.52371 -0.10524,0.134587 -0.14243,0.244702 -0.0826,0.244702 0.0598,0 1.14045,-1.475553 2.40147,-3.279008 z m 3.4106,-4.845102 c 0.33334,-0.484511 0.56205,-0.880928 0.50822,-0.880928 -0.0538,0 -0.37064,0.396417 -0.70398,0.880928 -0.33335,0.48451 -0.56205,0.880927 -0.50822,0.880927 0.0538,0 0.37064,-0.396417 0.70398,-0.880927 z m 1.37033,-1.957617 c 0.33334,-0.484511 0.56205,-0.880928 0.50822,-0.880928 -0.0538,0 -0.37064,0.396417 -0.70398,0.880928 -0.33334,0.48451 -0.56205,0.880927 -0.50822,0.880927 0.0538,0 0.37064,-0.396417 0.70398,-0.880927 z M 40.169613,52.295325 c 0.376842,-0.14512 0.553027,-0.266584 0.391524,-0.26992 -0.161504,-0.0033 -0.557921,0.114947 -0.880928,0.262851 -0.756044,0.346185 -0.404385,0.351265 0.489404,0.0071 z m 1.957617,-0.718193 c 0.20408,-0.126092 0.144371,-0.141502 -0.195761,-0.05052 -0.269173,0.072 -0.621544,0.212552 -0.783047,0.312338 -0.20408,0.126092 -0.144371,0.141502 0.195761,0.05052 0.269173,-0.072 0.621544,-0.212552 0.783047,-0.312338 z m 84.9755,-2.267173 c 0.88539,-1.26511 1.69549,-2.410316 1.80022,-2.544902 0.10474,-0.134586 0.14207,-0.244702 0.083,-0.244702 -0.0591,0 -0.83187,1.03509 -1.71726,2.3002 -0.8854,1.26511 -1.6955,2.410316 -1.80023,2.544902 -0.10473,0.134586 -0.14206,0.244702 -0.083,0.244702 0.0591,0 0.83187,-1.03509 1.71726,-2.3002 z m -83.996691,1.908677 c 0.161503,-0.104373 0.20555,-0.189766 0.09788,-0.189766 -0.107669,0 -0.327901,0.08539 -0.489405,0.189766 -0.161503,0.104372 -0.205549,0.189765 -0.09788,0.189765 0.107668,0 0.3279,-0.08539 0.489405,-0.189765 z m 2.172929,-1.500829 c 1.175097,-1.134461 3.112637,-3.925028 3.112637,-4.483015 0,-0.09595 -0.406482,0.528437 -0.903292,1.387537 -0.931868,1.61142 -2.472294,3.384644 -3.501346,4.030493 -0.323007,0.202723 -0.468605,0.368919 -0.32355,0.36932 0.145056,3.91e-4 0.872052,-0.586547 1.615551,-1.304335 z m 84.549512,-4.274142 c 0.33334,-0.48451 0.56205,-0.880927 0.50821,-0.880927 -0.0538,0 -0.37063,0.396417 -0.70398,0.880927 -0.33334,0.484511 -0.56205,0.880928 -0.50821,0.880928 0.0538,0 0.37063,-0.396417 0.70398,-0.880928 z m -81.051348,-1.17457 c 0,-0.107669 -0.08539,-0.06362 -0.189765,0.09788 -0.104373,0.161503 -0.189766,0.381735 -0.189766,0.489404 0,0.107669 0.08539,0.06362 0.189766,-0.09788 0.104372,-0.161503 0.189765,-0.381735 0.189765,-0.489404 z M 131.85024,42.55618 c 1.71037,-2.462238 2.28499,-3.653945 2.28499,-4.738811 0,-0.830169 -0.0581,-0.928187 -0.92987,-1.567748 -0.86935,-0.637823 -1.01903,-0.680037 -2.3002,-0.648727 l -1.37033,0.03349 1.34898,0.06911 c 1.1121,0.05698 1.49883,0.172209 2.20232,0.656228 0.79318,0.545723 0.85334,0.649023 0.85334,1.465147 0,1.076547 -0.57891,2.275243 -2.28499,4.73131 -0.69182,0.995938 -1.2138,1.810796 -1.15996,1.810796 0.0538,0 0.6639,-0.814858 1.35572,-1.810795 z m -82.692345,0.636226 c -0.0071,-0.19362 -0.06807,-0.160278 -0.179005,0.09788 -0.231257,0.538166 -0.231257,0.84725 0,0.489404 0.104372,-0.161504 0.184924,-0.425782 0.179005,-0.587284 z m 0.737769,-0.623991 c -0.06249,-0.156165 -0.108879,-0.109779 -0.118272,0.118274 -0.0085,0.206364 0.03777,0.321987 0.102818,0.256937 0.06505,-0.06505 0.072,-0.233896 0.01545,-0.375211 z m -0.587285,-0.195761 c -0.06249,-0.156165 -0.108879,-0.10978 -0.118272,0.118273 -0.0085,0.206364 0.03777,0.321987 0.102818,0.256937 0.06505,-0.06505 0.072,-0.233896 0.01545,-0.37521 z m 0.191684,-0.991044 c -0.05431,-0.134586 -0.09874,-0.02447 -0.09874,0.244702 0,0.269172 0.04443,0.379288 0.09874,0.244702 0.05431,-0.134586 0.05431,-0.354818 0,-0.489404 z m 0.591362,0.207997 c -0.06249,-0.156165 -0.108878,-0.109779 -0.118271,0.118273 -0.0085,0.206364 0.03777,0.321987 0.102818,0.256937 0.06505,-0.06505 0.072,-0.233896 0.01545,-0.37521 z m -0.395601,-1.186806 c -0.05431,-0.134586 -0.09874,-0.02447 -0.09874,0.244703 0,0.269172 0.04443,0.379288 0.09874,0.244702 0.05431,-0.134586 0.05431,-0.354818 0,-0.489405 z m 45.62965,-0.086 c -0.18842,-0.04924 -0.496745,-0.04924 -0.685166,0 -0.18842,0.04924 -0.03426,0.08953 0.342583,0.08953 0.376842,0 0.531004,-0.04029 0.342583,-0.08953 z m 1.566094,-0.195761 c -0.188421,-0.04924 -0.496745,-0.04924 -0.685166,0 -0.188421,0.04924 -0.03426,0.08953 0.342583,0.08953 0.376841,0 0.531004,-0.04029 0.342583,-0.08953 z M 49.891586,39.423993 c -0.05431,-0.134586 -0.09874,-0.02447 -0.09874,0.244702 0,0.269172 0.04443,0.379288 0.09874,0.244702 0.05431,-0.134586 0.05431,-0.354818 0,-0.489404 z m 48.761837,0.501281 c -0.18842,-0.04924 -0.496745,-0.04924 -0.685166,0 -0.18842,0.04924 -0.03426,0.08953 0.342583,0.08953 0.376842,0 0.531004,-0.04029 0.342583,-0.08953 z m -5.72603,-0.25688 c -1.444584,-0.07784 -2.681269,-0.253723 -3.211666,-0.456758 -0.47439,-0.181592 -0.898331,-0.294357 -0.942103,-0.250588 -0.04377,0.04377 0.432457,0.257986 1.058287,0.476039 0.895042,0.311855 1.597396,0.392346 3.291244,0.377176 l 2.153379,-0.01928 z m 7.487887,0.06112 c -0.18842,-0.04924 -0.496747,-0.04924 -0.685167,0 -0.188421,0.04924 -0.03426,0.08953 0.342587,0.08953 0.37684,0 0.531,-0.04029 0.34258,-0.08953 z m -3.717183,-0.195321 c -0.187168,-0.049 -0.539539,-0.05078 -0.783047,-0.004 -0.243528,0.04682 -0.09038,0.08691 0.340292,0.08909 0.430676,0.0022 0.629903,-0.03614 0.442755,-0.08514 z m 5.283273,-3.91e-4 c -0.18842,-0.04924 -0.49674,-0.04924 -0.68516,0 -0.18842,0.04924 -0.0343,0.08953 0.34258,0.08953 0.37684,0 0.531,-0.04029 0.34258,-0.08953 z M 50.674633,38.836708 c -0.05431,-0.134586 -0.09874,-0.02447 -0.09874,0.244702 0,0.269172 0.04443,0.379288 0.09874,0.244702 0.05431,-0.134586 0.05431,-0.354818 0,-0.489404 z m 47.589557,0.501721 c -0.187167,-0.049 -0.539539,-0.05077 -0.783047,-0.004 -0.243527,0.04682 -0.09038,0.08691 0.340293,0.08909 0.430676,0.0022 0.629902,-0.03614 0.442754,-0.08514 z m 5.47904,-3.91e-4 c -0.18842,-0.04924 -0.49675,-0.04924 -0.68517,0 -0.18842,0.04924 -0.0343,0.08953 0.34258,0.08953 0.37685,0 0.53101,-0.04029 0.34259,-0.08953 z m -3.71718,-0.195321 c -0.187172,-0.049 -0.539543,-0.05077 -0.783051,-0.004 -0.243528,0.04682 -0.09038,0.08691 0.340292,0.08909 0.430679,0.0022 0.629899,-0.03614 0.442759,-0.08514 z m 5.47903,-3.92e-4 c -0.18842,-0.04924 -0.49674,-0.04924 -0.68516,0 -0.18842,0.04924 -0.0343,0.08953 0.34258,0.08953 0.37684,0 0.531,-0.04029 0.34258,-0.08953 z M 50.087348,38.445184 c -0.05431,-0.134586 -0.09874,-0.02447 -0.09874,0.244702 0,0.269173 0.04443,0.379289 0.09874,0.244703 0.05431,-0.134587 0.05431,-0.354818 0,-0.489405 z m 51.700552,0.501722 c -0.18717,-0.049 -0.53954,-0.05078 -0.78305,-0.004 -0.24352,0.04682 -0.0904,0.08691 0.3403,0.08909 0.43067,0.0022 0.6299,-0.03614 0.44275,-0.08514 z m 5.47904,-3.92e-4 c -0.18842,-0.04924 -0.49675,-0.04924 -0.68517,0 -0.18842,0.04924 -0.0343,0.08953 0.34259,0.08953 0.37684,0 0.531,-0.04029 0.34258,-0.08953 z M 88.522755,38.808712 c 0,-0.04232 -0.13672,-0.129399 -0.303803,-0.19352 -0.174228,-0.06685 -0.252806,-0.03403 -0.184211,0.07694 0.114951,0.186015 0.488014,0.275133 0.488014,0.116584 z m 14.831235,-0.05757 c -0.18716,-0.049 -0.53953,-0.05077 -0.78304,-0.004 -0.24353,0.04682 -0.0904,0.08691 0.34029,0.08909 0.43068,0.0022 0.6299,-0.03614 0.44275,-0.08514 z m 5.47904,-3.91e-4 c -0.18842,-0.04924 -0.49674,-0.04924 -0.68516,0 -0.18842,0.04924 -0.0343,0.08953 0.34258,0.08953 0.37684,0 0.531,-0.04029 0.34258,-0.08953 z m -3.71718,-0.195322 c -0.18717,-0.049 -0.53954,-0.05077 -0.78305,-0.004 -0.24352,0.04682 -0.0904,0.08691 0.3403,0.08909 0.43067,0.0022 0.6299,-0.03614 0.44275,-0.08514 z m 5.47904,-3.91e-4 c -0.18842,-0.04924 -0.49675,-0.04924 -0.68517,0 -0.18842,0.04924 -0.0343,0.08953 0.34258,0.08953 0.37685,0 0.53101,-0.04029 0.34259,-0.08953 z M 87.739708,38.403131 c 0,-0.05005 -0.198209,-0.187045 -0.440464,-0.304441 -0.422962,-0.20497 -0.42537,-0.201357 -0.06047,0.09099 0.399413,0.31999 0.500935,0.36325 0.500935,0.213449 z m 19.138002,-0.04351 c -0.18717,-0.049 -0.53954,-0.05077 -0.78305,-0.004 -0.24353,0.04682 -0.0904,0.08691 0.34029,0.08909 0.43068,0.0022 0.6299,-0.03614 0.44276,-0.08514 z m 5.47903,-3.92e-4 c -0.18842,-0.04924 -0.49674,-0.04924 -0.68516,0 -0.18842,0.04924 -0.0343,0.08953 0.34258,0.08953 0.37684,0 0.531,-0.04029 0.34258,-0.08953 z m 21.13391,-0.890522 c -0.0468,-0.24351 -0.0869,-0.09038 -0.0891,0.340301 -0.002,0.430676 0.0361,0.629912 0.0851,0.442746 0.049,-0.187166 0.0508,-0.539537 0.004,-0.783047 z m -82.616178,0.401476 c -0.06249,-0.156165 -0.108879,-0.109779 -0.118271,0.118274 -0.0085,0.206364 0.03777,0.321987 0.102818,0.256937 0.06505,-0.06505 0.072,-0.233896 0.01544,-0.375211 z m 57.765088,0.293725 c -0.18717,-0.049 -0.53954,-0.05078 -0.78305,-0.004 -0.24352,0.04682 -0.0904,0.08691 0.3403,0.08909 0.43067,0.0022 0.6299,-0.03614 0.44275,-0.08514 z m 5.47904,-3.91e-4 c -0.18842,-0.04924 -0.49675,-0.04924 -0.68517,0 -0.18842,0.04924 -0.0343,0.08953 0.34259,0.08953 0.37684,0 0.531,-0.04029 0.34258,-0.08953 z M 50.283109,37.466376 c -0.05431,-0.134586 -0.09874,-0.02447 -0.09874,0.244702 0,0.269172 0.04443,0.379288 0.09874,0.244702 0.05431,-0.134586 0.05431,-0.354818 0,-0.489404 z m 60.118311,0.501721 c -0.18717,-0.049 -0.53954,-0.05077 -0.78305,-0.004 -0.24353,0.04682 -0.0904,0.08691 0.34029,0.08909 0.43068,0.0022 0.6299,-0.03614 0.44276,-0.08514 z m 5.28327,-3.91e-4 c -0.18842,-0.04924 -0.49674,-0.04924 -0.68516,0 -0.18842,0.04924 -0.0343,0.08953 0.34258,0.08953 0.37684,0 0.531,-0.04029 0.34258,-0.08953 z M 86.480099,37.650674 C 85.243648,36.889257 83.296935,34.448337 73.49176,21.365024 67.520578,13.397523 62.141907,6.3721246 61.539137,5.7530282 60.449312,4.6336666 60.437175,4.6276 59.360388,4.6636103 l -1.082817,0.036212 1.07669,0.072287 c 0.925071,0.062105 1.183497,0.1741633 1.835129,0.7957733 0.417148,0.3979209 5.758056,7.3744944 11.868699,15.5034994 10.277255,13.67188 12.148521,16.023973 13.213406,16.608638 0.523976,0.28768 0.686341,0.264839 0.208604,-0.02935 z m 25.487411,0.121711 c -0.18717,-0.049 -0.53954,-0.05078 -0.78305,-0.004 -0.24352,0.04682 -0.0904,0.08691 0.3403,0.08909 0.43067,0.0022 0.6299,-0.03614 0.44275,-0.08514 z m 5.47904,-3.92e-4 c -0.18842,-0.04924 -0.49675,-0.04924 -0.68517,0 -0.18842,0.04924 -0.0343,0.08953 0.34258,0.08953 0.37685,0 0.53101,-0.04029 0.34259,-0.08953 z m -3.71718,-0.195321 c -0.18717,-0.049 -0.53954,-0.05078 -0.78305,-0.004 -0.24353,0.04683 -0.0904,0.08692 0.34029,0.08909 0.43068,0.0022 0.6299,-0.03614 0.44276,-0.08514 z m 5.47903,-3.92e-4 c -0.18842,-0.04924 -0.49674,-0.04924 -0.68516,0 -0.18842,0.04924 -0.0343,0.08953 0.34258,0.08953 0.37684,0 0.531,-0.04029 0.34258,-0.08953 z m -3.71718,-0.195321 c -0.18717,-0.049 -0.53954,-0.05077 -0.78305,-0.004 -0.24352,0.04682 -0.0904,0.08691 0.3403,0.08909 0.43067,0.0022 0.6299,-0.03614 0.44275,-0.08514 z m 5.28328,-3.91e-4 c -0.18842,-0.04924 -0.49675,-0.04924 -0.68517,0 -0.18842,0.04924 -0.0343,0.08953 0.34258,0.08953 0.37684,0 0.53101,-0.04029 0.34259,-0.08953 z M 51.070234,36.891326 c -0.06249,-0.156165 -0.108879,-0.109779 -0.118271,0.118273 -0.0085,0.206364 0.03777,0.321987 0.102817,0.256937 0.06505,-0.06505 0.072,-0.233896 0.01545,-0.37521 z m 65.987076,0.293725 c -0.18716,-0.049 -0.53953,-0.05078 -0.78304,-0.004 -0.24353,0.04682 -0.0904,0.08691 0.34029,0.08909 0.43068,0.0022 0.6299,-0.03614 0.44275,-0.08514 z m 5.47904,-3.92e-4 c -0.18842,-0.04924 -0.49674,-0.04924 -0.68516,0 -0.18843,0.04924 -0.0343,0.08953 0.34258,0.08953 0.37684,0 0.531,-0.04029 0.34258,-0.08953 z M 50.478871,36.487567 c -0.05431,-0.134586 -0.09874,-0.02447 -0.09874,0.244702 0,0.269173 0.04443,0.379289 0.09874,0.244703 0.05431,-0.134587 0.05431,-0.354819 0,-0.489405 z m 68.340299,0.501722 c -0.18717,-0.049 -0.53954,-0.05078 -0.78305,-0.004 -0.24352,0.04682 -0.0904,0.08691 0.3403,0.08909 0.43067,0.0022 0.6299,-0.03614 0.44275,-0.08514 z m 5.47904,-3.92e-4 c -0.18842,-0.04924 -0.49675,-0.04924 -0.68517,0 -0.18842,0.04924 -0.0343,0.08953 0.34258,0.08953 0.37685,0 0.53101,-0.04029 0.34259,-0.08953 z m -3.71719,-0.195321 c -0.18716,-0.049 -0.53953,-0.05078 -0.78304,-0.004 -0.24353,0.04682 -0.0904,0.08691 0.34029,0.08909 0.43068,0.0022 0.6299,-0.03614 0.44275,-0.08514 z m 5.47904,-3.91e-4 c -0.18842,-0.04924 -0.49674,-0.04924 -0.68516,0 -0.18842,0.04924 -0.0343,0.08953 0.34258,0.08953 0.37684,0 0.531,-0.04029 0.34258,-0.08953 z m -3.71718,-0.195322 c -0.18717,-0.049 -0.53954,-0.05077 -0.78305,-0.004 -0.24352,0.04682 -0.0904,0.08691 0.3403,0.08909 0.43067,0.0022 0.6299,-0.03614 0.44275,-0.08514 z m 5.47904,-3.91e-4 c -0.18842,-0.04924 -0.49675,-0.04924 -0.68517,0 -0.18842,0.04924 -0.0343,0.08953 0.34258,0.08953 0.37685,0 0.53101,-0.04029 0.34259,-0.08953 z m -3.71718,-0.195321 c -0.18717,-0.049 -0.53954,-0.05078 -0.78305,-0.004 -0.24353,0.04682 -0.0904,0.08691 0.34029,0.08909 0.43068,0.0022 0.6299,-0.03614 0.44276,-0.08514 z m 5.28327,-3.92e-4 c -0.18842,-0.04924 -0.49674,-0.04924 -0.68516,0 -0.18843,0.04924 -0.0343,0.08953 0.34258,0.08953 0.37684,0 0.531,-0.04029 0.34258,-0.08953 z m -3.71718,-0.195321 c -0.18717,-0.049 -0.53954,-0.05078 -0.78305,-0.004 -0.24353,0.04682 -0.0904,0.08691 0.3403,0.08909 0.43067,0.0022 0.6299,-0.03614 0.44275,-0.08514 z M 50.67871,35.716756 c -0.06249,-0.156165 -0.108878,-0.10978 -0.118271,0.118273 -0.0085,0.206364 0.03777,0.321987 0.102818,0.256937 0.06505,-0.06505 0.072,-0.233896 0.01545,-0.37521 z m 76.75397,0.293724 c -0.18716,-0.049 -0.53953,-0.05077 -0.78304,-0.004 -0.24353,0.04682 -0.0904,0.08691 0.34029,0.08909 0.43068,0.0022 0.6299,-0.03614 0.44275,-0.08514 z m 1.76186,-0.195761 c -0.18717,-0.049 -0.53954,-0.05077 -0.78305,-0.004 -0.24352,0.04682 -0.0904,0.08691 0.3403,0.08909 0.43067,0.0022 0.6299,-0.03614 0.44275,-0.08514 z M 50.870394,34.725712 c -0.05431,-0.134586 -0.09874,-0.02447 -0.09874,0.244702 0,0.269172 0.04443,0.379288 0.09874,0.244702 0.05431,-0.134586 0.05431,-0.354818 0,-0.489404 z m 0.195762,-0.978809 c -0.05431,-0.134586 -0.09874,-0.02447 -0.09874,0.244703 0,0.269172 0.04443,0.379288 0.09874,0.244702 0.05431,-0.134587 0.05431,-0.354818 0,-0.489405 z m 0.195762,-0.978808 c -0.05431,-0.134586 -0.09874,-0.02447 -0.09874,0.244702 0,0.269172 0.04443,0.379288 0.09874,0.244702 0.05431,-0.134586 0.05431,-0.354818 0,-0.489404 z m 0.195766,-0.978809 c -0.0543,-0.134586 -0.09874,-0.02447 -0.09874,0.244702 0,0.269173 0.04444,0.379289 0.09874,0.244703 0.0543,-0.134587 0.0543,-0.354819 0,-0.489405 z m 0.195761,-0.978808 c -0.0543,-0.134586 -0.09874,-0.02447 -0.09874,0.244702 0,0.269172 0.04444,0.379288 0.09874,0.244702 0.0543,-0.134586 0.0543,-0.354818 0,-0.489404 z m 0.195762,-0.978809 c -0.0543,-0.134586 -0.09874,-0.02447 -0.09874,0.244702 0,0.269173 0.04444,0.379289 0.09874,0.244702 0.0543,-0.134586 0.0543,-0.354818 0,-0.489404 z m 0.199833,-0.770811 c -0.06249,-0.156165 -0.108882,-0.10978 -0.118279,0.118273 -0.0084,0.206364 0.03778,0.321987 0.102834,0.256937 0.06505,-0.06505 0.072,-0.233896 0.01546,-0.37521 z m 0.19169,-0.991044 c -0.0543,-0.134586 -0.09874,-0.02447 -0.09874,0.244702 0,0.269172 0.04444,0.379288 0.09874,0.244702 0.0543,-0.134586 0.0543,-0.354818 0,-0.489404 z m 0.195762,-0.978809 c -0.0543,-0.134586 -0.09874,-0.02447 -0.09874,0.244702 0,0.269173 0.04444,0.379289 0.09874,0.244703 0.0543,-0.134587 0.0543,-0.354818 0,-0.489405 z m 0.195762,-0.978808 c -0.05431,-0.134586 -0.09874,-0.02447 -0.09874,0.244702 0,0.269172 0.04444,0.379288 0.09874,0.244702 0.0543,-0.134586 0.0543,-0.354818 0,-0.489404 z m 0.195761,-0.978809 c -0.0543,-0.134586 -0.09874,-0.02447 -0.09874,0.244702 0,0.269173 0.04444,0.379289 0.09874,0.244703 0.0543,-0.134587 0.0543,-0.354819 0,-0.489405 z m 0.783047,-0.587285 c -0.0543,-0.134586 -0.09874,-0.02447 -0.09874,0.244702 0,0.269173 0.04444,0.379289 0.09874,0.244702 0.05431,-0.134586 0.05431,-0.354818 0,-0.489404 z M 53.023777,24.15458 c -0.0543,-0.134586 -0.09874,-0.02447 -0.09874,0.244702 0,0.269172 0.04444,0.379288 0.09874,0.244702 0.0543,-0.134586 0.0543,-0.354818 0,-0.489404 z m 0.787119,-0.57505 c -0.06249,-0.156165 -0.108883,-0.10978 -0.118279,0.118273 -0.0084,0.206364 0.03778,0.321987 0.102833,0.256937 0.06505,-0.06505 0.072,-0.233896 0.01546,-0.37521 z m -0.591357,-0.403759 c -0.0543,-0.134586 -0.09874,-0.02447 -0.09874,0.244702 0,0.269173 0.04444,0.379289 0.09874,0.244702 0.0543,-0.134586 0.0543,-0.354818 0,-0.489404 z m 0.787119,-0.57505 c -0.06249,-0.156165 -0.108883,-0.109779 -0.11828,0.118274 -0.0084,0.206364 0.03778,0.321986 0.102834,0.256937 0.06505,-0.06505 0.072,-0.233896 0.01547,-0.375211 z m -0.587286,-0.195762 c -0.06249,-0.156165 -0.108882,-0.109779 -0.118279,0.118274 -0.0084,0.206364 0.03778,0.321987 0.102834,0.256937 0.06505,-0.06505 0.072,-0.233896 0.01546,-0.375211 z m 0.19169,-0.991043 c -0.0543,-0.134586 -0.09874,-0.02447 -0.09874,0.244702 0,0.269172 0.04444,0.379288 0.09874,0.244702 0.05431,-0.134586 0.05431,-0.354818 0,-0.489404 z m 0.591357,0.207997 c -0.06249,-0.156165 -0.108882,-0.10978 -0.118279,0.118273 -0.0084,0.206364 0.03778,0.321987 0.102834,0.256937 0.06505,-0.06505 0.072,-0.233896 0.01546,-0.37521 z m -0.395595,-1.186806 c -0.0543,-0.134586 -0.09874,-0.02447 -0.09874,0.244702 0,0.269173 0.04444,0.379289 0.09874,0.244703 0.0543,-0.134587 0.0543,-0.354819 0,-0.489405 z m 0.591357,0.207997 c -0.06249,-0.156165 -0.108883,-0.109779 -0.118279,0.118273 -0.0084,0.206365 0.03778,0.321987 0.102833,0.256938 0.06505,-0.06505 0.072,-0.233896 0.01547,-0.375211 z m 0.195762,-0.783047 c -0.06249,-0.156165 -0.108883,-0.109779 -0.11828,0.118274 -0.0084,0.206364 0.03778,0.321987 0.102834,0.256937 0.06505,-0.06505 0.072,-0.233896 0.01546,-0.375211 z m -0.591357,-0.403758 c -0.0543,-0.134586 -0.09874,-0.02447 -0.09874,0.244702 0,0.269172 0.04444,0.379288 0.09874,0.244702 0.0543,-0.134586 0.0543,-0.354818 0,-0.489404 z m 0.787118,-0.57505 c -0.06249,-0.156165 -0.108882,-0.10978 -0.118279,0.118273 -0.0084,0.206364 0.03778,0.321987 0.102834,0.256937 0.06505,-0.06505 0.072,-0.233896 0.01546,-0.37521 z M 54.198347,18.47749 c -0.0543,-0.134586 -0.09874,-0.02447 -0.09874,0.244702 0,0.269173 0.04444,0.379289 0.09874,0.244702 0.0543,-0.134586 0.0543,-0.354818 0,-0.489404 z m 0.787119,-0.57505 c -0.06249,-0.156165 -0.108883,-0.109779 -0.118279,0.118274 -0.0084,0.206364 0.03778,0.321986 0.102833,0.256937 0.06505,-0.06505 0.072,-0.233896 0.01547,-0.375211 z m -0.591357,-0.403758 c -0.0543,-0.134587 -0.09874,-0.02447 -0.09874,0.244702 0,0.269172 0.04444,0.379288 0.09874,0.244702 0.0543,-0.134586 0.0543,-0.354818 0,-0.489404 z m 0.787119,-0.57505 c -0.06249,-0.156165 -0.108883,-0.10978 -0.118279,0.118273 -0.0084,0.206364 0.03778,0.321987 0.102833,0.256937 0.06505,-0.06505 0.072,-0.233896 0.01546,-0.37521 z m -0.591357,-0.403759 c -0.0543,-0.134586 -0.09874,-0.02447 -0.09874,0.244702 0,0.269173 0.04444,0.379289 0.09874,0.244702 0.0543,-0.134586 0.0543,-0.354818 0,-0.489404 z m 0.787119,-0.57505 c -0.06249,-0.156165 -0.108883,-0.109779 -0.11828,0.118273 -0.0084,0.206365 0.03778,0.321987 0.102834,0.256938 0.06505,-0.06505 0.072,-0.233896 0.01546,-0.375211 z m -0.587286,-0.195762 c -0.06249,-0.156165 -0.108882,-0.109779 -0.118279,0.118274 -0.0084,0.206364 0.03778,0.321987 0.102834,0.256937 0.06505,-0.06505 0.072,-0.233896 0.01546,-0.375211 z m 0.19169,-0.991043 c -0.0543,-0.134586 -0.09874,-0.02447 -0.09874,0.244702 0,0.269172 0.04444,0.379288 0.09874,0.244702 0.0543,-0.134586 0.0543,-0.354818 0,-0.489404 z m 0.591357,0.207997 c -0.06249,-0.156165 -0.108882,-0.10978 -0.118279,0.118273 -0.0084,0.206364 0.03778,0.321987 0.102834,0.256937 0.06505,-0.06505 0.072,-0.233896 0.01547,-0.37521 z m -0.395595,-1.186806 c -0.0543,-0.134586 -0.09874,-0.02447 -0.09874,0.244702 0,0.269173 0.04444,0.379289 0.09874,0.244702 0.0543,-0.134586 0.0543,-0.354818 0,-0.489404 z m 0.787119,-0.57505 c -0.06249,-0.156165 -0.108883,-0.109779 -0.11828,0.118274 -0.0084,0.206364 0.03778,0.321986 0.102834,0.256937 0.06505,-0.06505 0.072,-0.233896 0.01546,-0.375211 z m -0.591357,-0.403758 c -0.0543,-0.134586 -0.09874,-0.02447 -0.09874,0.244702 0,0.269172 0.04444,0.379288 0.09874,0.244702 0.0543,-0.134586 0.0543,-0.354818 0,-0.489404 z m 0.787118,-0.57505 c -0.06249,-0.156165 -0.108882,-0.10978 -0.118279,0.118273 -0.0084,0.206364 0.03778,0.321987 0.102834,0.256937 0.06505,-0.06505 0.072,-0.233896 0.01546,-0.37521 z m -0.591357,-0.403759 c -0.0543,-0.134586 -0.09874,-0.02447 -0.09874,0.244702 0,0.269173 0.04444,0.379289 0.09874,0.244702 0.0543,-0.134586 0.0543,-0.354818 0,-0.489404 z m 0.787119,-0.57505 c -0.06249,-0.156165 -0.108883,-0.109779 -0.118279,0.118273 -0.0084,0.206365 0.03778,0.321987 0.102833,0.256938 0.06505,-0.06505 0.072,-0.233896 0.01547,-0.375211 z m -0.591357,-0.403758 c -0.0543,-0.134587 -0.09874,-0.02447 -0.09874,0.244702 0,0.269172 0.04444,0.379288 0.09874,0.244702 0.0543,-0.134586 0.0543,-0.354818 0,-0.489404 z m 0.787119,-0.57505 c -0.06249,-0.156165 -0.108883,-0.10978 -0.118279,0.118273 -0.0084,0.206364 0.03778,0.321987 0.102833,0.256937 0.06505,-0.06505 0.072,-0.233896 0.01546,-0.37521 z M 55.960203,9.8639751 c -0.0543,-0.1345862 -0.09874,-0.02447 -0.09874,0.2447019 0,0.269173 0.04444,0.379289 0.09874,0.244702 0.0543,-0.134586 0.0543,-0.3548177 0,-0.4894039 z m 0.787118,-0.57505 c -0.06249,-0.156165 -0.108882,-0.1097793 -0.118279,0.1182733 -0.0084,0.2063642 0.03778,0.3219869 0.102834,0.2569373 0.06505,-0.06505 0.072,-0.2338961 0.01546,-0.3752106 z M 56.160036,9.0931634 c -0.06249,-0.156165 -0.108882,-0.1097793 -0.118279,0.1182733 -0.0084,0.2063642 0.03778,0.3219869 0.102834,0.2569372 0.06505,-0.06505 0.072,-0.233896 0.01546,-0.3752105 z m 0.19169,-0.9910437 c -0.0543,-0.1345862 -0.09874,-0.02447 -0.09874,0.2447021 0,0.2691724 0.04444,0.3792884 0.09874,0.2447022 0.0543,-0.1345862 0.0543,-0.3548181 0,-0.4894043 z m 0.591357,0.2079968 c -0.06249,-0.156165 -0.108882,-0.1097792 -0.118279,0.1182734 -0.0084,0.2063641 0.03778,0.3219869 0.102834,0.2569372 0.06505,-0.06505 0.072,-0.2338961 0.01546,-0.3752106 z M 56.547488,7.1233112 c -0.0543,-0.1345862 -0.09874,-0.02447 -0.09874,0.2447021 0,0.2691724 0.04444,0.3792883 0.09874,0.2447021 0.0543,-0.1345861 0.0543,-0.3548181 0,-0.4894042 z m 0.591357,0.2079968 c -0.06249,-0.156165 -0.108883,-0.1097793 -0.118279,0.1182733 -0.0084,0.2063642 0.03778,0.3219869 0.102833,0.2569373 0.06505,-0.06505 0.072,-0.2338961 0.01546,-0.3752106 z m 0.195762,-0.7830468 c -0.06249,-0.156165 -0.108883,-0.1097793 -0.11828,0.1182733 -0.0084,0.2063642 0.03778,0.3219869 0.102834,0.2569372 0.06505,-0.06505 0.072,-0.233896 0.01546,-0.3752105 z M 56.74325,6.1445026 c -0.05431,-0.1345861 -0.09874,-0.02447 -0.09874,0.2447022 0,0.2691723 0.04444,0.3792883 0.09874,0.2447021 0.0543,-0.1345862 0.0543,-0.3548181 0,-0.4894043 z m 0.947036,-0.342583 c 0.06654,-0.1076689 0.0277,-0.1957617 -0.08633,-0.1957617 -0.114012,0 -0.207312,0.088093 -0.207312,0.1957617 0,0.107669 0.03884,0.1957618 0.08633,0.1957618 0.04747,0 0.140773,-0.088093 0.207312,-0.1957618 z M 56.943083,5.3736909 c -0.06249,-0.156165 -0.108882,-0.1097792 -0.118279,0.1182734 -0.0084,0.2063641 0.03778,0.3219869 0.102834,0.2569372 0.06505,-0.06505 0.072,-0.2338961 0.01546,-0.3752106 z m 3.050085,-0.1010972 c -0.240767,-0.046466 -0.681231,-0.04767 -0.978809,-0.00266 -0.297557,0.044996 -0.100562,0.083015 0.437782,0.084485 0.538345,0.00137 0.781814,-0.035347 0.541027,-0.081813 z"
               id="path3973"
               inkscape:connector-curvature="0"
               transform="matrix(1203.1579,0,0,1203.1579,28727.285,13532.519)" />
          </g>
          <g
             id="g3909">
            <path
               stroke-miterlimit="10"
               pointer-events="visiblePainted"
               d="m 103158.26,21412.582 v 0 l -1864.25,-1864.274 h -1864.243 l -1864.245,612.912 -638.44,3115.636 -8708.321,42290.928 v 0 l -1225.805,3115.636 -1864.245,3115.636 -3115.587,3115.636 -3115.587,1225.824 -41038.923,13688.368 v 0 l -2502.685,1864.274 -612.903,1251.362 612.903,1864.274 1864.245,1864.274 37948.873,21145.462 v 0 l 3115.587,1864.28 2477.148,3115.63 1251.342,3728.55 612.902,3115.64 638.44,43542.29 v 0 l 612.903,2477.18 1251.342,1864.28 h 1864.245 l 1864.245,-1864.28 31717.699,-29241.01 v 0 l 3115.59,-2477.18 3728.49,-1251.37 h 3728.49 l 3728.49,638.45 41064.46,12437.01 v 0 l 3090.05,612.91 1251.34,-612.91 612.9,-1864.27 -612.9,-2502.73 -18029.55,-39788.2 v 0 l -1251.34,-3115.64 v -3728.55 l 612.9,-3754.08 1864.25,-3090.1 24899.16,-35472.282 v 0 l 1225.8,-2477.186 v -1864.274 l -1864.24,-1251.362 h -2477.15 l -43541.61,4979.91 v 0 h -3115.58 l -3728.49,-1251.362 -3115.59,-1864.274 -2477.15,-2477.186 z"
               id="path3907"
               inkscape:connector-curvature="0"
               style="stroke:#000000;stroke-width:12031.57910156;stroke-linecap:round;stroke-linejoin:round;stroke-miterlimit:10;stroke-opacity:0" />
          </g>
          <g
             id="g3936">
            <g
               direction="ltr"
               style="direction:ltr;opacity:1"
               id="g3934">
              <g
                 transform="matrix(381,0,0,381,38374.489,94346.342)"
                 id="g3926">
                <g
                   pointer-events="none"
                   id="g3920">
                  <g
                     id="editor-g3627be40cb_0_8-paragraph-0">
                    <g
                       id="g3917">
                      <g
                         class="sketchy-text-background"
                         visibility="visible"
                         id="g3911"
                         style="visibility:visible" />
                      <g
                         id="g3913" />
                      <g
                         class="sketchy-text-content"
                         visibility="visible"
                         id="g3915"
                         style="visibility:visible" />
                    </g>
                  </g>
                </g>
                <rect
                   style="opacity:0;fill:#ffa800;shape-rendering:crispEdges"
                   x="-0.20696396"
                   y="-0.15707767"
                   width="1.3863928"
                   height="22.4"
                   class=""
                   id="rect3922" />
                <rect
                   style="opacity:0"
                   id="rect3924"
                   width="0"
                   height="0"
                   x="0"
                   y="0" />
              </g>
              <g
                 id="g3930">
                <path
                   d="m 38374.489,94346.342 v 0 8534.398 0 z"
                   pointer-events="visiblePainted"
                   id="path3928"
                   inkscape:connector-curvature="0"
                   style="opacity:0;fill:#000000;stroke:#000000" />
              </g>
              <g
                 transform="matrix(381,0,0,381,38374.489,94346.342)"
                 id="g3932" />
            </g>
          </g>
        </g>
      </g>
    </g>
  </g>
</svg>
